<?xml version="1.0" standalone="no"?>
<!DOCTYPE svg PUBLIC "-//W3C//DTD SVG 20010904//EN"
 "http://www.w3.org/TR/2001/REC-SVG-20010904/DTD/svg10.dtd">
<svg version="1.0" xmlns="http://www.w3.org/2000/svg"
 width="96.000000pt" height="96.000000pt" viewBox="0 0 96.000000 96.000000"
 preserveAspectRatio="xMidYMid meet">

<g transform="translate(0.000000,96.000000) scale(0.100000,-0.100000)"
fill="#000000" stroke="none">
<path d="M241 884 c-40 -45 -51 -73 -51 -132 l0 -47 -18 30 c-11 17 -26 36
-35 43 -14 12 -19 9 -37 -20 -13 -21 -20 -50 -20 -81 0 -43 5 -54 35 -84 42
-42 45 -59 8 -39 -79 40 -98 17 -63 -77 23 -60 54 -87 103 -87 14 0 27 -7 31
-15 4 -12 -3 -15 -37 -15 -85 0 -98 -41 -31 -99 39 -35 75 -39 129 -17 28 12
37 12 51 1 17 -12 15 -14 -20 -23 -39 -11 -76 -37 -76 -54 0 -17 85 -48 131
-48 33 0 51 5 64 20 10 11 24 20 32 20 11 0 10 -6 -5 -28 -11 -15 -22 -36 -24
-47 -5 -31 25 -28 44 5 22 38 34 38 56 0 19 -33 49 -36 44 -5 -2 11 -13 32
-24 47 -15 22 -16 28 -5 28 8 0 22 -9 32 -20 13 -15 31 -20 64 -20 46 0 131
31 131 48 0 17 -37 43 -76 54 -35 9 -37 11 -20 23 14 11 23 11 51 -1 54 -22
90 -18 129 17 67 58 54 99 -31 99 -34 0 -41 3 -37 15 4 8 17 15 31 15 49 0 80
27 103 87 35 94 16 117 -62 77 -38 -20 -35 -3 7 39 30 30 35 41 35 84 0 31 -7
60 -20 81 -18 29 -23 32 -37 20 -9 -7 -24 -26 -35 -43 l-18 -30 0 48 c0 57
-19 103 -60 142 -36 35 -56 28 -70 -25 -16 -58 1 -100 58 -150 l47 -41 -38 17
c-48 23 -62 11 -52 -43 9 -56 37 -97 80 -117 25 -12 35 -22 31 -33 -3 -8 -6
-19 -6 -24 0 -6 -11 3 -25 18 l-25 28 -24 -27 c-32 -36 -41 -88 -22 -133 20
-47 20 -48 -1 -62 -17 -12 -19 -10 -15 22 4 32 2 35 -23 35 -32 0 -101 -37
-111 -59 -4 -9 -10 -38 -13 -66 -4 -35 -10 -50 -21 -50 -11 0 -17 15 -21 50
-3 28 -9 57 -13 66 -10 22 -79 59 -111 59 -25 0 -27 -3 -23 -35 4 -32 2 -34
-15 -22 -21 14 -21 15 -1 62 19 45 10 97 -22 133 l-24 27 -25 -28 c-14 -15
-25 -24 -25 -18 0 5 -3 16 -6 24 -4 11 6 21 31 33 43 20 71 61 80 117 10 54
-4 66 -52 43 l-38 -17 47 41 c59 51 75 97 56 155 -7 22 -20 41 -29 43 -9 2
-31 -14 -48 -34z m49 -50 c0 -23 -28 -71 -45 -77 -23 -10 -19 45 6 77 21 27
39 27 39 0z m440 -55 c0 -26 -2 -28 -19 -20 -23 13 -45 65 -36 88 6 16 9 15
31 -10 14 -16 24 -41 24 -58z m-586 -81 c3 -13 6 -38 6 -57 0 -29 -2 -32 -15
-21 -9 8 -15 30 -15 56 0 47 14 59 24 22z m696 -22 c0 -26 -6 -48 -15 -56 -13
-11 -15 -8 -15 21 0 43 10 79 21 79 5 0 9 -20 9 -44z m-580 -43 c0 -17 -37
-63 -52 -63 -13 0 -10 12 12 48 21 35 40 42 40 15z m484 -22 c10 -17 16 -35
12 -38 -10 -10 -56 39 -56 60 0 27 21 16 44 -22z m-605 -117 c24 -30 28 -64 8
-64 -19 0 -44 30 -52 63 -9 36 16 37 44 1z m726 -1 c-12 -52 -65 -87 -65 -44
0 24 37 71 57 71 12 0 14 -6 8 -27z m-600 -54 c9 -28 -3 -71 -18 -66 -15 5
-21 31 -13 63 8 29 22 31 31 3z m461 -3 c7 -31 2 -58 -13 -63 -15 -5 -26 32
-19 63 8 31 24 31 32 0z m-497 -133 c19 -12 21 -17 10 -24 -24 -15 -66 -10
-90 11 -21 17 -22 21 -9 30 18 12 55 5 89 -17z m591 17 c13 -9 12 -13 -9 -30
-24 -21 -66 -26 -89 -11 -15 9 -1 24 39 40 31 13 41 13 59 1z m-417 -28 c20
-17 24 -66 5 -60 -14 5 -58 65 -58 79 0 11 30 0 53 -19z m197 -4 c-16 -30 -41
-58 -52 -58 -15 0 -8 47 10 62 17 16 44 28 50 22 2 -1 -2 -13 -8 -26z m-210
-108 c0 -5 -9 -14 -20 -20 -26 -14 -112 6 -89 21 19 12 109 12 109 -1z m289 1
c23 -15 -63 -35 -89 -21 -11 6 -20 15 -20 20 0 13 90 13 109 1z"/>
</g>
</svg>
