<?xml version="1.0" encoding="utf-8"?>
<!-- Generator: Adobe Illustrator 25.3.1, SVG Export Plug-In . SVG Version: 6.00 Build 0)  -->
<svg version="1.1" id="Слой_1" xmlns="http://www.w3.org/2000/svg" xmlns:xlink="http://www.w3.org/1999/xlink" x="0px" y="0px"
	 viewBox="0 0 2500 2500" style="enable-background:new 0 0 2500 2500;" xml:space="preserve">
<style type="text/css">
	.st0{fill:#FFFFFF;}
</style>
<path class="st0" d="M833.4,1250c0-230.11,186.49-416.7,416.6-416.7s416.7,186.59,416.7,416.7s-186.59,416.7-416.7,416.7
	S833.4,1480.11,833.4,1250 M608.14,1250c0,354.5,287.36,641.86,641.86,641.86s641.86-287.36,641.86-641.86
	S1604.5,608.14,1250,608.14S608.14,895.5,608.14,1250 M1767.27,582.69c0,82.79,67.14,150.04,150.04,150.04
	c82.79,0,150.04-67.25,150.04-150.04s-67.14-149.94-150.04-149.94S1767.27,499.9,1767.27,582.69 M744.95,2267.47
	c-121.87-5.55-188.11-25.85-232.13-43.01c-58.36-22.72-99.96-49.78-143.78-93.5c-43.72-43.72-70.88-85.32-93.5-143.68
	c-17.16-44.02-37.46-110.26-43.01-232.13c-6.06-131.76-7.27-171.34-7.27-505.15s1.31-373.28,7.27-505.15
	c5.55-121.87,25.95-188,43.01-232.13c22.72-58.36,49.78-99.96,93.5-143.78c43.72-43.72,85.32-70.88,143.78-93.5
	c44.02-17.16,110.26-37.46,232.13-43.01c131.76-6.06,171.34-7.27,505.05-7.27c333.8,0,373.28,1.31,505.15,7.27
	c121.87,5.55,188,25.95,232.13,43.01c58.36,22.62,99.96,49.78,143.78,93.5c43.72,43.72,70.78,85.42,93.5,143.78
	c17.16,44.02,37.46,110.26,43.01,232.13c6.06,131.87,7.27,171.34,7.27,505.15c0,333.7-1.21,373.28-7.27,505.15
	c-5.55,121.87-25.95,188.11-43.01,232.13c-22.72,58.36-49.78,99.96-93.5,143.68c-43.72,43.72-85.42,70.78-143.78,93.5
	c-44.02,17.16-110.26,37.46-232.13,43.01c-131.76,6.06-171.34,7.27-505.15,7.27C916.3,2274.74,876.72,2273.53,744.95,2267.47
	 M734.65,7.57C601.58,13.63,510.7,34.73,431.24,65.63c-82.19,31.91-151.86,74.72-221.43,144.18
	C140.35,279.28,97.54,348.95,65.63,431.24c-30.9,79.46-52,170.34-58.06,303.41C1.41,867.93,0,910.54,0,1250s1.41,382.07,7.57,515.35
	c6.06,133.08,27.16,223.95,58.06,303.41c31.91,82.19,74.62,151.96,144.18,221.43c69.47,69.47,139.14,112.18,221.43,144.18
	c79.56,30.9,170.34,52,303.41,58.06c133.38,6.06,175.89,7.57,515.35,7.57c339.56,0,382.07-1.41,515.35-7.57
	c133.08-6.06,223.95-27.16,303.41-58.06c82.19-32.01,151.86-74.72,221.43-144.18c69.47-69.47,112.18-139.24,144.18-221.43
	c30.9-79.46,52.1-170.34,58.06-303.41c6.06-133.38,7.47-175.89,7.47-515.35s-1.41-382.07-7.47-515.35
	c-6.06-133.08-27.16-223.95-58.06-303.41c-32.01-82.19-74.72-151.86-144.18-221.43c-69.47-69.47-139.24-112.28-221.32-144.18
	c-79.56-30.9-170.44-52.1-303.41-58.06C1632.17,1.51,1589.56,0,1250.1,0C910.54,0,868.03,1.41,734.65,7.57"/>
</svg>
