<?xml version="1.0" encoding="utf-8"?>
<!-- Generator: Adobe Illustrator 25.3.1, SVG Export Plug-In . SVG Version: 6.00 Build 0)  -->
<svg version="1.1" id="VK_Logo" xmlns="http://www.w3.org/2000/svg" xmlns:xlink="http://www.w3.org/1999/xlink" x="0px" y="0px"
	 viewBox="0 0 2500 2500" style="enable-background:new 0 0 2500 2500;" xml:space="preserve">
<style type="text/css">
	.st0{fill-rule:evenodd;clip-rule:evenodd;fill:#FFFFFF;}
	.st1{clip-path:url(#SVGID_3_);fill:#FFFFFF;}
	.st2{fill-rule:evenodd;clip-rule:evenodd;}
</style>
<g id="Base">
	<g>
		<path id="SVGID_1_" class="st0" d="M886.14,61.88h728.96c665.84,0,823.02,158.42,823.02,824.26v728.96
			c0,665.84-158.42,823.02-824.26,823.02H884.9c-665.84,0-823.02-158.42-823.02-824.26V884.9C61.88,220.3,220.3,61.88,886.14,61.88z
			"/>
	</g>
	<g>
		<defs>
			<path id="SVGID_2_" d="M886.14,61.88h728.96c665.84,0,823.02,158.42,823.02,824.26v728.96c0,665.84-158.42,823.02-824.26,823.02
				H884.9c-665.84,0-823.02-158.42-823.02-824.26V884.9C61.88,220.3,220.3,61.88,886.14,61.88z"/>
		</defs>
		<use xlink:href="#SVGID_2_"  style="overflow:visible;fill:#FFFFFF;"/>
		<clipPath id="SVGID_3_">
			<use xlink:href="#SVGID_2_"  style="overflow:visible;"/>
		</clipPath>
		<path class="st1" d="M0,0h2500v2500H0V0z"/>
	</g>
</g>
<path id="Logo" class="st2" d="M2007.43,879.95c11.14-37.13,0-63.12-51.98-63.12h-173.27c-44.55,0-64.36,23.51-75.5,49.5
	c0,0-87.87,215.35-212.87,353.96c-40.84,40.84-58.17,53.22-80.45,53.22c-11.14,0-27.23-12.38-27.23-49.51V879.95
	c0-44.55-12.38-63.12-49.51-63.12h-272.28c-27.23,0-44.55,21.04-44.55,39.6c0,42.08,61.88,51.98,69.31,168.32v254.95
	c0,55.69-9.9,65.59-32.18,65.59c-58.17,0-201.73-215.35-285.89-462.87c-17.33-45.79-33.42-65.59-77.97-65.59H519.8
	c-49.5,0-59.41,23.51-59.41,49.5c0,45.79,58.17,273.51,273.51,574.26c143.56,205.45,345.3,316.83,528.47,316.83
	c110.15,0,123.76-24.75,123.76-66.83v-155.94c0-49.5,9.9-59.41,45.79-59.41c25.99,0,69.31,12.38,172.03,111.39
	c117.57,117.57,137.38,170.79,202.97,170.79h173.27c49.51,0,74.26-24.75,59.41-73.02c-16.09-48.27-71.78-118.81-146.04-202.97
	c-40.84-48.27-101.49-99.01-118.81-125c-25.99-33.42-18.56-48.27,0-76.73C1774.75,1278.47,1986.39,981.44,2007.43,879.95
	L2007.43,879.95z"/>
</svg>
